# xmcd CD database file
#
# Track frame offsets:
#	150
#	27259
#	53855
#	74715
#	94305
#	121184
#	136803
#	162569
#	193509
#	220219
#	246670
#
# Disc length: 3643 seconds
#
# Revision: 0
# Processed by: cddbd v1.5.2PL0 Copyright (c) Steve Scherf et al.
# Submitted via: CDex 1.70beta2
#
DISCID=a90e390b
DTITLE=Compilation - ZugZwang Festival II (2011)
DYEAR=2011
DGENRE=Expérimental
TTITLE0=Cent Ans de Solitude - Shadows of life
TTITLE1=Cent Ans de Solitude - Beyond the darkness
TTITLE2=Cent Ans de Solitude - Irradiation
TTITLE3=M.A.O. - Aju
TTITLE4=M.A.O. - Immer mehr
TTITLE5=M.A.O. - Pictures and the wall
TTITLE6=PPF - Nous sommes ici quelques-uns
TTITLE7=PPF - La Bête règne
TTITLE8=PPF - Le réveil
TTITLE9=Esplendor Geometrico - Aplicacion Insospechada RMX
TTITLE10=Esplendor Geometrico - Ensiladora JF50 RMX
EXTD=YEAR: 2011
EXTT0=
EXTT1=
EXTT2=
EXTT3=
EXTT4=
EXTT5=
EXTT6=
EXTT7=
EXTT8=
EXTT9=
EXTT10=
PLAYORDER=
